<svg width="28" height="28" viewBox="0 0 28 28" fill="none" xmlns="http://www.w3.org/2000/svg">
<path d="M23.1875 12.25C23.1875 18.8125 14 24.9375 14 24.9375C14 24.9375 4.8125 18.8125 4.8125 12.25C4.8125 9.81332 5.78047 7.47645 7.50346 5.75346C9.22645 4.03047 11.5633 3.0625 14 3.0625C16.4367 3.0625 18.7736 4.03047 20.4965 5.75346C22.2195 7.47645 23.1875 9.81332 23.1875 12.25V12.25Z" stroke="white" stroke-width="2.625" stroke-linecap="round" stroke-linejoin="round"/>
<path d="M14 14.4375C15.2081 14.4375 16.1875 13.4581 16.1875 12.25C16.1875 11.0419 15.2081 10.0625 14 10.0625C12.7919 10.0625 11.8125 11.0419 11.8125 12.25C11.8125 13.4581 12.7919 14.4375 14 14.4375Z" fill="white" stroke="white" stroke-width="2.625" stroke-linecap="round" stroke-linejoin="round"/>
</svg>
