<svg width="170" height="71" viewBox="0 0 170 71" fill="none" xmlns="http://www.w3.org/2000/svg">
<path d="M49.9105 3.30615V48.6716H45.6191V3.30615H49.9105Z" fill="white"/>
<path d="M86.2344 30.2189C86.2344 31.6902 86.1936 32.8141 86.1118 33.5907H58.3408C58.4634 36.1246 59.0765 38.2907 60.18 40.089C61.2834 41.8872 62.7343 43.2564 64.5326 44.1964C66.3309 45.0955 68.2926 45.5451 70.4178 45.5451C73.197 45.5451 75.5266 44.8707 77.4066 43.522C79.3275 42.1733 80.5944 40.3546 81.2075 38.0659H85.744C84.9266 41.3355 83.1692 44.0125 80.4718 46.0968C77.8153 48.1403 74.464 49.1621 70.4178 49.1621C67.2709 49.1621 64.4509 48.4673 61.9578 47.0777C59.4647 45.6473 57.503 43.6446 56.0725 41.0698C54.683 38.4542 53.9882 35.4094 53.9882 31.9354C53.9882 28.4615 54.683 25.4167 56.0725 22.801C57.4621 20.1854 59.4034 18.1828 61.8965 16.7932C64.3895 15.4036 67.23 14.7088 70.4178 14.7088C73.6057 14.7088 76.3848 15.4036 78.7553 16.7932C81.1666 18.1828 83.0057 20.0628 84.2727 22.4332C85.5805 24.7628 86.2344 27.358 86.2344 30.2189ZM81.8818 30.0963C81.9227 27.6032 81.4118 25.478 80.3492 23.7206C79.3275 21.9632 77.9174 20.6349 76.1192 19.7358C74.3209 18.8367 72.3592 18.3871 70.2339 18.3871C67.0461 18.3871 64.3282 19.4088 62.0804 21.4523C59.8326 23.4958 58.586 26.3771 58.3408 30.0963H81.8818Z" fill="white"/>
<path d="M88.4457 31.8741C88.4457 28.4411 89.1405 25.4371 90.5301 22.8623C91.9197 20.2467 93.8201 18.2441 96.2314 16.8545C98.6836 15.424 101.442 14.7088 104.508 14.7088C107.45 14.7088 110.107 15.424 112.477 16.8545C114.848 18.2849 116.585 20.1445 117.688 22.4332V3.30615H121.979V48.6716H117.688V41.1924C116.666 43.522 114.991 45.4429 112.661 46.9551C110.332 48.4264 107.593 49.1621 104.446 49.1621C101.381 49.1621 98.6223 48.4468 96.1701 47.0164C93.7588 45.5859 91.8584 43.5629 90.4688 40.9472C89.1201 38.3316 88.4457 35.3072 88.4457 31.8741ZM117.688 31.9354C117.688 29.238 117.136 26.8676 116.033 24.8241C114.929 22.7806 113.417 21.2071 111.496 20.1036C109.616 19.0001 107.532 18.4484 105.243 18.4484C102.873 18.4484 100.748 18.9797 98.8675 20.0423C96.9875 21.1049 95.4958 22.658 94.3923 24.7015C93.3297 26.7041 92.7984 29.095 92.7984 31.8741C92.7984 34.6124 93.3297 37.0237 94.3923 39.1081C95.4958 41.1516 96.9875 42.7251 98.8675 43.8285C100.748 44.8912 102.873 45.4225 105.243 45.4225C107.532 45.4225 109.616 44.8707 111.496 43.7672C113.417 42.6638 114.929 41.0903 116.033 39.0468C117.136 37.0033 117.688 34.6328 117.688 31.9354Z" fill="white"/>
<path d="M132.389 15.1993V48.6716H128.098V15.1993H132.389Z" fill="white"/>
<path d="M136.467 31.8741C136.467 28.4411 137.141 25.4371 138.49 22.8623C139.88 20.2467 141.78 18.2441 144.191 16.8545C146.644 15.424 149.402 14.7088 152.467 14.7088C155.655 14.7088 158.394 15.4445 160.682 16.9158C163.012 18.3871 164.688 20.2671 165.709 22.5558V15.1993H170.001V48.6716H165.709V41.2538C164.647 43.5425 162.951 45.4429 160.621 46.9551C158.332 48.4264 155.594 49.1621 152.406 49.1621C149.382 49.1621 146.644 48.4468 144.191 47.0164C141.78 45.5859 139.88 43.5629 138.49 40.9472C137.141 38.3316 136.467 35.3072 136.467 31.8741ZM165.709 31.9354C165.709 29.238 165.158 26.8676 164.054 24.8241C162.951 22.7806 161.438 21.2071 159.517 20.1036C157.637 19.0001 155.553 18.4484 153.264 18.4484C150.894 18.4484 148.769 18.9797 146.889 20.0423C145.009 21.1049 143.517 22.658 142.413 24.7015C141.351 26.7041 140.82 29.095 140.82 31.8741C140.82 34.6124 141.351 37.0237 142.413 39.1081C143.517 41.1516 145.009 42.7251 146.889 43.8285C148.769 44.8912 150.894 45.4225 153.264 45.4225C155.553 45.4225 157.637 44.8707 159.517 43.7672C161.438 42.6638 162.951 41.0903 164.054 39.0468C165.158 37.0033 165.709 34.6328 165.709 31.9354Z" fill="white"/>
<path d="M40.7138 29.7187C40.7138 40.9615 31.5997 50.0756 20.3569 50.0756C9.11409 50.0756 0 40.9615 0 29.7187C0 18.4759 9.11409 9.36182 20.3569 9.36182C31.5997 9.36182 40.7138 18.4759 40.7138 29.7187ZM4.69883 29.7187C4.69883 38.3664 11.7092 45.3768 20.3569 45.3768C29.0046 45.3768 36.015 38.3664 36.015 29.7187C36.015 21.071 29.0046 14.0606 20.3569 14.0606C11.7092 14.0606 4.69883 21.071 4.69883 29.7187Z" fill="white"/>
<path d="M7.04442e-05 50.0747C6.99722e-05 55.4737 2.14481 60.6516 5.96247 64.4692C9.78012 68.2869 14.958 70.4316 20.357 70.4316C25.756 70.4316 30.9338 68.2869 34.7515 64.4692C38.5691 60.6516 40.7139 55.4737 40.7139 50.0747L36.015 50.0747C36.015 54.2275 34.3654 58.2102 31.4289 61.1467C28.4924 64.0831 24.5097 65.7328 20.357 65.7328C16.2042 65.7328 12.2215 64.0831 9.28504 61.1467C6.34858 58.2102 4.6989 54.2275 4.6989 50.0747L7.04442e-05 50.0747Z" fill="white"/>
<path d="M34.0018 8.43779C32.5397 6.97575 32.5397 4.60531 34.0018 3.14326L37.1454 -0.0003639L37.9727 0.826906C39.4347 2.28895 39.4347 4.65939 37.9727 6.12143L34.829 9.26506L34.0018 8.43779Z" fill="white"/>
<path d="M129.235 8.43779C127.773 6.97575 127.773 4.60531 129.235 3.14326L132.379 -0.0003639L133.206 0.826906C134.668 2.28895 134.668 4.65939 133.206 6.12143L130.062 9.26506L129.235 8.43779Z" fill="white"/>
</svg>
