<svg width="27" height="27" viewBox="0 0 27 27" fill="none" xmlns="http://www.w3.org/2000/svg">
<path d="M9.5625 7.875C9.5625 6.01538 11.25 3.375 13.5 3.375C15.75 3.375 17.4375 6.01538 17.4375 7.875M4.5 7.875L5.47538 21.5359C5.51605 22.1033 5.77018 22.6343 6.18661 23.0219C6.60303 23.4096 7.15084 23.625 7.71975 23.625H19.2803C19.8492 23.625 20.397 23.4096 20.8134 23.0219C21.2298 22.6343 21.4839 22.1033 21.5246 21.5359L22.5 7.875H4.5Z" stroke="white" stroke-width="2.25" stroke-linecap="round" stroke-linejoin="round"/>
<path d="M10.6875 19.125C11.1521 19.6448 11.8125 20.25 13.5 20.25C15.1875 20.25 16.3125 19.2409 16.3125 18C16.3125 16.7591 15.1875 16.3125 13.5 15.75C11.8125 15.1875 11.25 14.0962 11.25 13.5C11.25 12.258 12.375 11.25 13.5 11.25C14.625 11.25 15.1875 11.25 16.3125 12.375" stroke="white" stroke-width="2.25" stroke-linecap="round" stroke-linejoin="round"/>
</svg>
